<?xml version="1.0" encoding="iso-8859-1"?>
<!-- Generator: Adobe Illustrator 16.0.0, SVG Export Plug-In . SVG Version: 6.00 Build 0)  -->
<!DOCTYPE svg PUBLIC "-//W3C//DTD SVG 1.1//EN" "http://www.w3.org/Graphics/SVG/1.1/DTD/svg11.dtd">
<svg version="1.1" id="Capa_1" xmlns="http://www.w3.org/2000/svg" xmlns:xlink="http://www.w3.org/1999/xlink" x="0px" y="0px"
	 width="478.125px" height="478.125px" viewBox="0 0 478.125 478.125" style="enable-background:new 0 0 478.125 478.125;"
	 xml:space="preserve">
<g>
	<g>
		<circle cx="239.062" cy="200.812" r="28.688"/>
		<circle cx="239.062" cy="277.312" r="28.688"/>
		<path d="M239.062,114.75c-68.85,0-124.312,55.462-124.312,124.312c0,68.85,55.462,124.312,124.312,124.312
			c68.85,0,124.312-55.463,124.312-124.312C363.375,170.212,307.912,114.75,239.062,114.75z M286.875,277.312
			c0,26.775-21.037,47.812-47.812,47.812c-26.775,0-47.812-21.037-47.812-47.812c0-15.3,7.65-28.688,19.125-38.25
			c-11.475-9.562-19.125-22.95-19.125-38.25c0-26.775,21.038-47.812,47.812-47.812c26.775,0,47.812,21.038,47.812,47.812
			c0,15.3-7.65,28.688-19.125,38.25C279.225,248.625,286.875,262.013,286.875,277.312z"/>
		<path d="M239.062,0C107.1,0,0,107.1,0,239.062c0,131.963,107.1,239.062,239.062,239.062c131.963,0,239.062-107.1,239.062-239.062
			C478.125,107.1,371.025,0,239.062,0z M239.062,459c-122.4,0-219.938-97.537-219.938-219.938
			c0-122.4,97.538-219.938,219.938-219.938c122.4,0,219.938,97.538,219.938,219.938C459,361.463,361.463,459,239.062,459z"/>
	</g>
</g>
<g>
</g>
<g>
</g>
<g>
</g>
<g>
</g>
<g>
</g>
<g>
</g>
<g>
</g>
<g>
</g>
<g>
</g>
<g>
</g>
<g>
</g>
<g>
</g>
<g>
</g>
<g>
</g>
<g>
</g>
</svg>
